PathFileType	4	(X/Y/Z)	output.trc
DataRate	CameraRate	NumFrames	NumMarkers	Units	OrigDataRate	OrigDataStartFrame	OrigNumFrames
100	100	12	23	m	100	1419	5673
Frame#	Time	C7			T8			EL			EM			US			RS			AA			Fore_Clus_1			Fore_Clus_2			Fore_Clus_3			Fore_Clus_4			Hum_Clus_1			Hum_Clus_2			Hum_Clus_3			Hum_Clus_4			Thor_Clus_1			Thor_Clus_2			Thor_Clus_3			Thor_Clus_4			IJ			PX			GH			Thor_Clus_5		
		X1	Y1	Z1	X2	Y2	Z2	X3	Y3	Z3	X4	Y4	Z4	X5	Y5	Z5	X6	Y6	Z6	X7	Y7	Z7	X8	Y8	Z8	X9	Y9	Z9	X10	Y10	Z10	X11	Y11	Z11	X12	Y12	Z12	X13	Y13	Z13	X14	Y14	Z14	X15	Y15	Z15	X16	Y16	Z16	X17	Y17	Z17	X18	Y18	Z18	X19	Y19	Z19	X20	Y20	Z20	X21	Y21	Z21	X22	Y22	Z22	X23	Y23	Z23
1418	14.180000	-0.088777	1.520801	-0.133351	-0.102317	1.293488	-0.212050	-0.285413	1.131459	0.019579	-0.267104	1.117784	-0.054365	-0.290240	0.863391	0.068234	-0.242179	0.872438	0.096058	-0.243696	1.440456	-0.010156	-0.304801	0.917307	0.085888	-0.301185	0.864923	0.100604	-0.277843	0.870626	0.115255	-0.267809	0.927323	0.109683	-0.280217	1.231514	0.063108	-0.319489	1.247465	0.020313	-0.318954	1.310612	0.028282	-0.274144	1.305325	0.066386	0.035204	1.412745	0.003384	-0.004898	1.354706	0.049470	-0.004127	1.405583	0.022062	0.052464	1.364535	0.021752	-0.020061	1.431674	-0.036308	0.012945	1.219164	0.016079	-0.223036	1.413586	-0.012138	-0.012401	1.375991	0.040949
1419	14.190000	-0.088768	1.520807	-0.133375	-0.102306	1.293496	-0.212081	-0.285438	1.131465	0.019555	-0.267124	1.117790	-0.054388	-0.290300	0.863396	0.068221	-0.242243	0.872443	0.096054	-0.243697	1.440461	-0.010192	-0.304853	0.917306	0.085878	-0.301248	0.864927	0.100606	-0.277901	0.870623	0.115250	-0.267865	0.927321	0.109680	-0.280233	1.231509	0.063085	-0.319505	1.247462	0.020303	-0.318962	1.310607	0.028264	-0.274147	1.305319	0.066375	0.035202	1.412740	0.003361	-0.004903	1.354694	0.049441	-0.004139	1.405585	0.022027	0.052464	1.364539	0.021728	-0.020060	1.431676	-0.036330	0.012940	1.219165	0.016054	-0.223042	1.413589	-0.012150	-0.012406	1.375988	0.040928
1420	14.200000	-0.088758	1.520812	-0.133399	-0.102293	1.293503	-0.212110	-0.285465	1.131471	0.019532	-0.267145	1.117796	-0.054409	-0.290364	0.863405	0.068208	-0.242307	0.872450	0.096040	-0.243696	1.440466	-0.010229	-0.304900	0.917311	0.085865	-0.301291	0.864917	0.100586	-0.277949	0.870622	0.115257	-0.267909	0.927326	0.109675	-0.280250	1.231509	0.063077	-0.319517	1.247471	0.020276	-0.318974	1.310605	0.028253	-0.274162	1.305318	0.066354	0.035205	1.412732	0.003343	-0.004911	1.354692	0.049431	-0.004134	1.405593	0.022017	0.052479	1.364527	0.021697	-0.020057	1.431679	-0.036351	0.012936	1.219166	0.016032	-0.223045	1.413591	-0.012163	-0.012409	1.375979	0.040914
1421	14.210000	-0.088738	1.520827	-0.133419	-0.102277	1.293523	-0.212143	-0.285493	1.131478	0.019513	-0.267168	1.117802	-0.054427	-0.290427	0.863416	0.068192	-0.242367	0.872460	0.096021	-0.243690	1.440482	-0.010266	-0.304945	0.917303	0.085857	-0.301368	0.864920	0.100600	-0.278010	0.870614	0.115240	-0.267959	0.927318	0.109669	-0.280280	1.231510	0.063057	-0.319538	1.247468	0.020265	-0.318987	1.310609	0.028239	-0.274175	1.305309	0.066351	0.035183	1.412736	0.003340	-0.004917	1.354696	0.049420	-0.004149	1.405586	0.022003	0.052473	1.364529	0.021688	-0.020050	1.431686	-0.036370	0.012929	1.219170	0.016005	-0.223046	1.413593	-0.012177	-0.012402	1.375975	0.040896
1422	14.220000	-0.088718	1.520843	-0.133438	-0.102261	1.293543	-0.212173	-0.285523	1.131486	0.019495	-0.267194	1.117808	-0.054443	-0.290491	0.863430	0.068176	-0.242424	0.872472	0.095993	-0.243683	1.440499	-0.010301	-0.304991	0.917302	0.085840	-0.301392	0.864909	0.100575	-0.278046	0.870611	0.115228	-0.268001	0.927322	0.109662	-0.280296	1.231512	0.063050	-0.319557	1.247475	0.020252	-0.319001	1.310616	0.028224	-0.274189	1.305316	0.066334	0.035214	1.412716	0.003294	-0.004918	1.354690	0.049400	-0.004148	1.405585	0.021981	0.052473	1.364532	0.021655	-0.020041	1.431694	-0.036388	0.012924	1.219174	0.015980	-0.223044	1.413594	-0.012191	-0.012398	1.375971	0.040878
1423	14.230000	-0.088691	1.520866	-0.133452	-0.102242	1.293573	-0.212205	-0.285554	1.131495	0.019481	-0.267223	1.117813	-0.054456	-0.290553	0.863446	0.068158	-0.242476	0.872487	0.095959	-0.243673	1.440524	-0.010335	-0.305034	0.917309	0.085829	-0.301434	0.864925	0.100573	-0.278072	0.870608	0.115205	-0.268051	0.927318	0.109641	-0.280329	1.231519	0.063035	-0.319577	1.247488	0.020241	-0.319009	1.310629	0.028208	-0.274198	1.305324	0.066316	0.035097	1.412818	0.003410	-0.004914	1.354698	0.049380	-0.004145	1.405588	0.021968	0.052478	1.364542	0.021630	-0.020029	1.431706	-0.036402	0.012918	1.219179	0.015953	-0.223040	1.413595	-0.012206	-0.012404	1.375984	0.040856
1424	14.240000	-0.088658	1.520896	-0.133462	-0.102223	1.293611	-0.212238	-0.285585	1.131504	0.019470	-0.267253	1.117819	-0.054466	-0.290610	0.863464	0.068140	-0.242522	0.872504	0.095921	-0.243659	1.440555	-0.010366	-0.305071	0.917324	0.085810	-0.301472	0.864935	0.100556	-0.278115	0.870627	0.115213	-0.268086	0.927330	0.109631	-0.280343	1.231526	0.063022	-0.319592	1.247514	0.020205	-0.319014	1.310654	0.028176	-0.274209	1.305342	0.066300	0.035533	1.412495	0.002927	-0.004918	1.354699	0.049375	-0.004147	1.405603	0.021946	0.052476	1.364543	0.021633	-0.020013	1.431720	-0.036414	0.012910	1.219185	0.015923	-0.223033	1.413595	-0.012220	-0.012399	1.375989	0.040846
1425	14.250000	-0.088627	1.520926	-0.133469	-0.102205	1.293651	-0.212269	-0.285616	1.131514	0.019460	-0.267285	1.117824	-0.054475	-0.290664	0.863483	0.068121	-0.242562	0.872521	0.095879	-0.243644	1.440586	-0.010394	-0.305099	0.917330	0.085788	-0.301505	0.864949	0.100546	-0.278156	0.870652	0.115183	-0.268131	0.927355	0.109623	-0.280365	1.231554	0.063010	-0.319603	1.247536	0.020176	-0.319031	1.310674	0.028171	-0.274209	1.305361	0.066280	0.032643	1.414680	0.005944	-0.004909	1.354716	0.049355	-0.004146	1.405599	0.021932	0.052474	1.364562	0.021601	-0.019997	1.431735	-0.036425	0.012903	1.219192	0.015894	-0.223024	1.413596	-0.012235	-0.012397	1.375998	0.040827
1426	14.260000	-0.088588	1.520965	-0.133471	-0.102186	1.293702	-0.212303	-0.285647	1.131524	0.019454	-0.267319	1.117830	-0.054481	-0.290708	0.863502	0.068102	-0.242593	0.872540	0.095837	-0.243626	1.440627	-0.010420	-0.305132	0.917342	0.085763	-0.301515	0.864968	0.100493	-0.278196	0.870656	0.115190	-0.268167	0.927365	0.109600	-0.280384	1.231574	0.062996	-0.319622	1.247568	0.020159	-0.319042	1.310710	0.028138	-0.274223	1.305385	0.066258	0.035014	1.412908	0.003432	-0.004916	1.354726	0.049343	-0.004138	1.405610	0.021907	0.052489	1.364573	0.021589	-0.019978	1.431753	-0.036432	0.012893	1.219199	0.015861	-0.223013	1.413596	-0.012251	-0.012394	1.376014	0.040800
1427	14.270000	-0.088554	1.521002	-0.133472	-0.102169	1.293749	-0.212333	-0.285678	1.131535	0.019448	-0.267353	1.117835	-0.054487	-0.290744	0.863521	0.068083	-0.242615	0.872558	0.095793	-0.243608	1.440665	-0.010443	-0.305121	0.917334	0.085728	-0.301535	0.864968	0.100490	-0.278214	0.870645	0.115144	-0.268189	0.927372	0.109592	-0.280405	1.231595	0.062985	-0.319642	1.247588	0.020138	-0.319052	1.310728	0.028122	-0.274236	1.305401	0.066233	0.033348	1.414177	0.005164	-0.004907	1.354733	0.049333	-0.004126	1.405620	0.021894	0.052484	1.364578	0.021560	-0.019959	1.431770	-0.036440	0.012886	1.219206	0.015830	-0.223001	1.413595	-0.012267	-0.012387	1.376026	0.040785
1428	14.280000	-0.088518	1.521040	-0.133472	-0.102153	1.293800	-0.212363	-0.285708	1.131545	0.019445	-0.267387	1.117839	-0.054490	-0.290769	0.863538	0.068064	-0.242627	0.872576	0.095752	-0.243590	1.440705	-0.010464	-0.305354	0.917469	0.085772	-0.301542	0.864975	0.100475	-0.278228	0.870660	0.115128	-0.268203	0.927380	0.109581	-0.280423	1.231609	0.062974	-0.319665	1.247604	0.020124	-0.319069	1.310742	0.028100	-0.274251	1.305418	0.066223	0.034043	1.413654	0.004429	-0.004898	1.354741	0.049311	-0.004127	1.405631	0.021878	0.052504	1.364588	0.021540	-0.019940	1.431788	-0.036446	0.012877	1.219214	0.015798	-0.222988	1.413595	-0.012284	-0.012378	1.376031	0.040774
1429	14.290000	-0.088483	1.521078	-0.133472	-0.102139	1.293848	-0.212392	-0.285737	1.131556	0.019442	-0.267421	1.117843	-0.054493	-0.290781	0.863553	0.068046	-0.242628	0.872592	0.095715	-0.243572	1.440745	-0.010484	-0.305509	0.917574	0.085799	-0.301520	0.864978	0.100444	-0.278210	0.870658	0.115114	-0.268202	0.927388	0.109568	-0.280444	1.231628	0.062957	-0.319679	1.247626	0.020107	-0.319072	1.310760	0.028080	-0.274260	1.305433	0.066208	0.032553	1.414775	0.005972	-0.004894	1.354737	0.049291	-0.004117	1.405634	0.021859	0.052504	1.364584	0.021530	-0.019922	1.431806	-0.036453	0.012867	1.219222	0.015768	-0.222975	1.413594	-0.012303	-0.012377	1.376030	0.040760
